<svg xmlns="http://www.w3.org/2000/svg" xmlns:xlink="http://www.w3.org/1999/xlink" width="851" zoomAndPan="magnify" viewBox="0 0 638.25 142.499996" height="190" preserveAspectRatio="xMidYMid meet" version="1.0"><defs><g/><clipPath id="8d4049df9d"><rect x="0" width="578" y="0" height="116"/></clipPath></defs><g transform="matrix(1, 0, 0, 1, 29, 13)"><g clip-path="url(#8d4049df9d)"><g fill="#000000" fill-opacity="1"><g transform="translate(0.637787, 87.391806)"><g><path d="M 1.1875 -39.765625 C 1.1875 -47.710938 2.351562 -54.664062 4.6875 -60.625 C 7.019531 -66.59375 10.582031 -71.234375 15.375 -74.546875 C 20.175781 -77.859375 26.238281 -79.515625 33.5625 -79.515625 L 45.484375 -79.515625 L 45.640625 -56.0625 C 44.160156 -56.0625 42.769531 -56.0625 41.46875 -56.0625 C 40.164062 -56.0625 38.984375 -56.0625 37.921875 -56.0625 C 33.421875 -56.0625 30.148438 -54.550781 28.109375 -51.53125 C 26.066406 -48.507812 25.046875 -44.585938 25.046875 -39.765625 C 25.046875 -36.578125 25.46875 -33.75 26.3125 -31.28125 C 27.164062 -28.820312 28.53125 -26.898438 30.40625 -25.515625 C 32.289062 -24.140625 34.769531 -23.453125 37.84375 -23.453125 C 39.226562 -23.453125 40.59375 -23.453125 41.9375 -23.453125 C 43.289062 -23.453125 44.523438 -23.453125 45.640625 -23.453125 L 45.484375 0 L 33.5625 0 C 26.238281 0 20.175781 -1.65625 15.375 -4.96875 C 10.582031 -8.28125 7.019531 -12.914062 4.6875 -18.875 C 2.351562 -24.84375 1.1875 -31.804688 1.1875 -39.765625 Z M 1.1875 -39.765625 "/></g></g></g><g fill="#000000" fill-opacity="1"><g transform="translate(47.467817, 87.391806)"><g><path d="M 1.1875 0 L 1.1875 -79.4375 L 29.1875 -79.4375 C 31.832031 -79.4375 34.648438 -79.007812 37.640625 -78.15625 C 40.640625 -77.3125 43.460938 -75.921875 46.109375 -73.984375 C 48.765625 -72.054688 50.925781 -69.5 52.59375 -66.3125 C 54.269531 -63.132812 55.109375 -59.210938 55.109375 -54.546875 C 55.109375 -50.785156 54.628906 -47.59375 53.671875 -44.96875 C 52.710938 -42.34375 51.546875 -40.21875 50.171875 -38.59375 C 48.796875 -36.976562 47.445312 -35.75 46.125 -34.90625 L 57.890625 0.078125 L 34.671875 0 L 25.046875 -30.0625 L 25.046875 0 Z M 27.03125 -57.171875 L 25.046875 -57.25 L 25.046875 -45.71875 L 26.953125 -45.71875 C 27.960938 -45.71875 28.785156 -46.085938 29.421875 -46.828125 C 30.054688 -47.578125 30.492188 -48.503906 30.734375 -49.609375 C 30.972656 -50.722656 31 -51.847656 30.8125 -52.984375 C 30.625 -54.128906 30.222656 -55.097656 29.609375 -55.890625 C 29.003906 -56.691406 28.144531 -57.117188 27.03125 -57.171875 Z M 27.03125 -57.171875 "/></g></g></g><g fill="#000000" fill-opacity="1"><g transform="translate(103.67976, 87.391806)"><g><path d="M 48.34375 0 L 1.1875 0 L 1.1875 -79.4375 L 48.34375 -79.4375 L 48.34375 -55.578125 L 25.046875 -55.578125 L 25.046875 -51.609375 L 43.578125 -51.609375 L 43.578125 -27.75 L 25.046875 -27.75 L 25.046875 -23.859375 L 48.34375 -23.859375 Z M 48.34375 0 "/></g></g></g><g fill="#000000" fill-opacity="1"><g transform="translate(153.213043, 87.391806)"><g><path d="M 24.015625 0 L 0 0 L 20.515625 -79.4375 L 44.53125 -79.4375 L 65.125 0 L 41.109375 0 L 39.4375 -7.546875 L 25.609375 -7.546875 Z M 32.515625 -39.765625 L 29.890625 -27.4375 L 35.21875 -27.4375 Z M 32.515625 -39.765625 "/></g></g></g><g fill="#000000" fill-opacity="1"><g transform="translate(205.847119, 87.391806)"><g><path d="M 1.1875 -55.734375 L 1.1875 -79.515625 L 52.875 -79.515625 L 52.875 -55.734375 L 38.96875 -55.734375 L 38.96875 0 L 15.109375 0 L 15.109375 -55.734375 Z M 1.1875 -55.734375 "/></g></g></g><g fill="#000000" fill-opacity="1"><g transform="translate(259.912339, 87.391806)"><g><path d="M 48.34375 0 L 1.1875 0 L 1.1875 -79.4375 L 48.34375 -79.4375 L 48.34375 -55.578125 L 25.046875 -55.578125 L 25.046875 -51.609375 L 43.578125 -51.609375 L 43.578125 -27.75 L 25.046875 -27.75 L 25.046875 -23.859375 L 48.34375 -23.859375 Z M 48.34375 0 "/></g></g></g><g fill="#000000" fill-opacity="1"><g transform="translate(309.445622, 87.391806)"><g/></g></g><g fill="#000000" fill-opacity="1"><g transform="translate(334.888091, 87.391806)"><g><path d="M 24.015625 0 L 0 0 L 20.515625 -79.4375 L 44.53125 -79.4375 L 65.125 0 L 41.109375 0 L 39.4375 -7.546875 L 25.609375 -7.546875 Z M 32.515625 -39.765625 L 29.890625 -27.4375 L 35.21875 -27.4375 Z M 32.515625 -39.765625 "/></g></g></g><g fill="#000000" fill-opacity="1"><g transform="translate(399.925391, 87.391806)"><g/></g></g><g fill="#000000" fill-opacity="1"><g transform="translate(425.367824, 87.391806)"><g><path d="M 1.1875 -79.4375 L 25.046875 -79.515625 L 25.046875 -23.859375 L 43.8125 -23.859375 L 43.8125 0 L 1.1875 0 Z M 1.1875 -79.4375 "/></g></g></g><g fill="#000000" fill-opacity="1"><g transform="translate(468.381475, 87.391806)"><g><path d="M 29.265625 1.1875 C 23.742188 1.1875 19.164062 0.207031 15.53125 -1.75 C 11.90625 -3.707031 9.046875 -6.488281 6.953125 -10.09375 C 4.859375 -13.695312 3.375 -18.015625 2.5 -23.046875 C 1.625 -28.085938 1.1875 -33.6875 1.1875 -39.84375 C 1.1875 -45.988281 1.625 -51.550781 2.5 -56.53125 C 3.375 -61.519531 4.859375 -65.828125 6.953125 -69.453125 C 9.046875 -73.085938 11.90625 -75.867188 15.53125 -77.796875 C 19.164062 -79.734375 23.742188 -80.703125 29.265625 -80.703125 C 34.773438 -80.703125 39.34375 -79.734375 42.96875 -77.796875 C 46.601562 -75.867188 49.46875 -73.085938 51.5625 -69.453125 C 53.65625 -65.828125 55.140625 -61.519531 56.015625 -56.53125 C 56.890625 -51.550781 57.328125 -45.988281 57.328125 -39.84375 C 57.328125 -33.6875 56.890625 -28.085938 56.015625 -23.046875 C 55.140625 -18.015625 53.65625 -13.695312 51.5625 -10.09375 C 49.46875 -6.488281 46.601562 -3.707031 42.96875 -1.75 C 39.34375 0.207031 34.773438 1.1875 29.265625 1.1875 Z M 29.265625 -56.53125 C 27.617188 -56.476562 26.503906 -54.914062 25.921875 -51.84375 C 25.335938 -48.769531 25.046875 -44.476562 25.046875 -38.96875 C 25.046875 -34.144531 25.335938 -30.257812 25.921875 -27.3125 C 26.503906 -24.375 27.617188 -22.90625 29.265625 -22.90625 C 30.910156 -22.90625 32.050781 -24.375 32.6875 -27.3125 C 33.320312 -30.257812 33.613281 -34.144531 33.5625 -38.96875 C 33.5 -44.476562 33.175781 -48.78125 32.59375 -51.875 C 32.019531 -54.976562 30.910156 -56.53125 29.265625 -56.53125 Z M 29.265625 -56.53125 "/></g></g></g><g fill="#000000" fill-opacity="1"><g transform="translate(526.899163, 87.391806)"><g><path d="M 1.1875 -40.390625 C 1.1875 -48.453125 2.722656 -55.410156 5.796875 -61.265625 C 8.878906 -67.117188 13.476562 -71.625 19.59375 -74.78125 C 25.71875 -77.9375 33.367188 -79.515625 42.546875 -79.515625 L 48.5 -79.515625 L 48.5 -55.65625 L 42.546875 -55.65625 C 35.910156 -55.65625 31.238281 -54.25 28.53125 -51.4375 C 25.832031 -48.632812 24.484375 -44.742188 24.484375 -39.765625 C 24.484375 -37.003906 25.210938 -34.5625 26.671875 -32.4375 C 28.128906 -30.320312 30.078125 -28.65625 32.515625 -27.4375 L 32.515625 -39.765625 L 48.5 -39.765625 L 48.5 0 L 42.546875 0 C 33.367188 0 25.71875 -1.679688 19.59375 -5.046875 C 13.476562 -8.410156 8.878906 -13.128906 5.796875 -19.203125 C 2.722656 -25.273438 1.1875 -32.335938 1.1875 -40.390625 Z M 1.1875 -40.390625 "/></g></g></g></g></g></svg>