<svg xmlns="http://www.w3.org/2000/svg" xmlns:xlink="http://www.w3.org/1999/xlink" width="1920" zoomAndPan="magnify" viewBox="0 0 1440 809.999993" height="1080" preserveAspectRatio="xMidYMid meet" version="1.0"><defs><g/><clipPath id="9dcf274b9a"><rect x="0" width="1232" y="0" height="263"/></clipPath></defs><g transform="matrix(1, 0, 0, 1, 104, 229)"><g clip-path="url(#9dcf274b9a)"><g fill="#000000" fill-opacity="1"><g transform="translate(0.71902, 198.505146)"><g><path d="M 2.703125 -180.265625 L 56.84375 -180.453125 L 56.84375 -54.140625 L 99.421875 -54.140625 L 99.421875 0 L 2.703125 0 Z M 2.703125 -180.265625 "/></g></g></g><g fill="#000000" fill-opacity="1"><g transform="translate(98.346363, 198.505146)"><g><path d="M 66.40625 2.703125 C 53.894531 2.703125 43.519531 0.476562 35.28125 -3.96875 C 27.039062 -8.414062 20.539062 -14.726562 15.78125 -22.90625 C 11.03125 -31.09375 7.660156 -40.898438 5.671875 -52.328125 C 3.691406 -63.753906 2.703125 -76.445312 2.703125 -90.40625 C 2.703125 -104.363281 3.691406 -116.992188 5.671875 -128.296875 C 7.660156 -139.609375 11.03125 -149.382812 15.78125 -157.625 C 20.539062 -165.863281 27.039062 -172.175781 35.28125 -176.5625 C 43.519531 -180.957031 53.894531 -183.15625 66.40625 -183.15625 C 78.914062 -183.15625 89.289062 -180.957031 97.53125 -176.5625 C 105.769531 -172.175781 112.265625 -165.863281 117.015625 -157.625 C 121.773438 -149.382812 125.144531 -139.609375 127.125 -128.296875 C 129.113281 -116.992188 130.109375 -104.363281 130.109375 -90.40625 C 130.109375 -76.445312 129.113281 -63.753906 127.125 -52.328125 C 125.144531 -40.898438 121.773438 -31.09375 117.015625 -22.90625 C 112.265625 -14.726562 105.769531 -8.414062 97.53125 -3.96875 C 89.289062 0.476562 78.914062 2.703125 66.40625 2.703125 Z M 66.40625 -128.296875 C 62.675781 -128.179688 60.148438 -124.632812 58.828125 -117.65625 C 57.503906 -110.675781 56.84375 -100.929688 56.84375 -88.421875 C 56.84375 -77.472656 57.503906 -68.660156 58.828125 -61.984375 C 60.148438 -55.304688 62.675781 -51.96875 66.40625 -51.96875 C 70.132812 -51.96875 72.71875 -55.304688 74.15625 -61.984375 C 75.601562 -68.660156 76.269531 -77.472656 76.15625 -88.421875 C 76.03125 -100.929688 75.304688 -110.703125 73.984375 -117.734375 C 72.660156 -124.773438 70.132812 -128.296875 66.40625 -128.296875 Z M 66.40625 -128.296875 "/></g></g></g><g fill="#000000" fill-opacity="1"><g transform="translate(231.162882, 198.505146)"><g><path d="M 2.703125 -91.671875 C 2.703125 -109.953125 6.191406 -125.738281 13.171875 -139.03125 C 20.148438 -152.332031 30.585938 -162.5625 44.484375 -169.71875 C 58.378906 -176.875 75.734375 -180.453125 96.546875 -180.453125 L 110.078125 -180.453125 L 110.078125 -126.3125 L 96.546875 -126.3125 C 81.503906 -126.3125 70.914062 -123.125 64.78125 -116.75 C 58.644531 -110.375 55.578125 -101.53125 55.578125 -90.21875 C 55.578125 -83.96875 57.226562 -78.4375 60.53125 -73.625 C 63.84375 -68.8125 68.269531 -65.019531 73.8125 -62.25 L 73.8125 -90.21875 L 110.078125 -90.21875 L 110.078125 0 L 96.546875 0 C 75.734375 0 58.378906 -3.816406 44.484375 -11.453125 C 30.585938 -19.097656 20.148438 -29.804688 13.171875 -43.578125 C 6.191406 -57.347656 2.703125 -73.378906 2.703125 -91.671875 Z M 2.703125 -91.671875 "/></g></g></g><g fill="#000000" fill-opacity="1"><g transform="translate(344.489986, 198.505146)"><g/></g></g><g fill="#000000" fill-opacity="1"><g transform="translate(402.236273, 198.505146)"><g><path d="M 54.5 0 L 0 0 L 46.5625 -180.265625 L 101.046875 -180.265625 L 147.796875 0 L 93.296875 0 L 89.5 -17.140625 L 58.109375 -17.140625 Z M 73.8125 -90.21875 L 67.84375 -62.25 L 79.9375 -62.25 Z M 73.8125 -90.21875 "/></g></g></g><g fill="#000000" fill-opacity="1"><g transform="translate(549.850294, 198.505146)"><g/></g></g><g fill="#000000" fill-opacity="1"><g transform="translate(607.596581, 198.505146)"><g><path d="M 0 -180.265625 L 54.140625 -180.265625 L 72.546875 -90.046875 L 90.765625 -180.265625 L 144.90625 -180.265625 L 98.171875 0 L 46.734375 0 Z M 0 -180.265625 "/></g></g></g><g fill="#000000" fill-opacity="1"><g transform="translate(752.503684, 198.505146)"><g><path d="M 109.71875 0 L 2.703125 0 L 2.703125 -180.265625 L 109.71875 -180.265625 L 109.71875 -126.140625 L 56.84375 -126.140625 L 56.84375 -117.109375 L 98.890625 -117.109375 L 98.890625 -62.984375 L 56.84375 -62.984375 L 56.84375 -54.140625 L 109.71875 -54.140625 Z M 109.71875 0 "/></g></g></g><g fill="#000000" fill-opacity="1"><g transform="translate(864.928553, 198.505146)"><g><path d="M 2.703125 -180.265625 L 47.640625 -180.265625 L 78.671875 -110.4375 L 78.671875 -180.265625 L 123.796875 -180.265625 L 123.796875 0 L 78.5 0 L 47.8125 -69.109375 L 47.8125 0 L 2.703125 0 Z M 2.703125 -180.265625 "/></g></g></g><g fill="#000000" fill-opacity="1"><g transform="translate(991.429051, 198.505146)"><g><path d="M 2.703125 -180.453125 L 56.84375 -180.453125 L 56.84375 -71.828125 C 56.84375 -65.203125 57.203125 -60.144531 57.921875 -56.65625 C 58.648438 -53.164062 60.578125 -51.484375 63.703125 -51.609375 C 66.828125 -51.609375 68.75 -53.320312 69.46875 -56.75 C 70.195312 -60.175781 70.5625 -65.203125 70.5625 -71.828125 L 70.5625 -180.453125 L 124.6875 -180.453125 L 124.6875 -48.359375 C 124.6875 -38.617188 122.429688 -29.894531 117.921875 -22.1875 C 113.410156 -14.488281 106.644531 -8.414062 97.625 -3.96875 C 88.601562 0.476562 77.175781 2.703125 63.34375 2.703125 C 49.863281 2.703125 38.613281 0.476562 29.59375 -3.96875 C 20.570312 -8.414062 13.832031 -14.488281 9.375 -22.1875 C 4.925781 -29.894531 2.703125 -38.617188 2.703125 -48.359375 Z M 2.703125 -180.453125 "/></g></g></g><g fill="#000000" fill-opacity="1"><g transform="translate(1118.831872, 198.505146)"><g><path d="M 109.71875 0 L 2.703125 0 L 2.703125 -180.265625 L 109.71875 -180.265625 L 109.71875 -126.140625 L 56.84375 -126.140625 L 56.84375 -117.109375 L 98.890625 -117.109375 L 98.890625 -62.984375 L 56.84375 -62.984375 L 56.84375 -54.140625 L 109.71875 -54.140625 Z M 109.71875 0 "/></g></g></g></g></g></svg>