<svg xmlns="http://www.w3.org/2000/svg" xmlns:xlink="http://www.w3.org/1999/xlink" width="1920" zoomAndPan="magnify" viewBox="0 0 1440 809.999993" height="1080" preserveAspectRatio="xMidYMid meet" version="1.0"><defs><g/><clipPath id="93175e6a77"><rect x="0" width="276" y="0" height="555"/></clipPath><clipPath id="ac4e5c6c27"><path d="M 719.847656 48.785156 L 1230.429688 48.785156 L 1230.429688 181.234375 L 719.847656 181.234375 Z M 719.847656 48.785156 " clip-rule="nonzero"/></clipPath><clipPath id="33a3144ec6"><path d="M 0.847656 0.785156 L 511.429688 0.785156 L 511.429688 133.234375 L 0.847656 133.234375 Z M 0.847656 0.785156 " clip-rule="nonzero"/></clipPath><clipPath id="2867eb2f87"><rect x="0" width="512" y="0" height="134"/></clipPath><clipPath id="8b467f07b1"><rect x="0" width="454" y="0" height="810"/></clipPath><clipPath id="c49ca70866"><path d="M 942 181 L 1085 181 L 1085 695 L 942 695 Z M 942 181 " clip-rule="nonzero"/></clipPath><clipPath id="b79d986b3e"><path d="M 1075.242188 181.234375 L 1084.957031 691.722656 L 952.53125 694.242188 L 942.816406 183.753906 Z M 1075.242188 181.234375 " clip-rule="nonzero"/></clipPath><clipPath id="a1c05efbee"><path d="M 0.71875 0.199219 L 143 0.199219 L 143 513.320312 L 0.71875 513.320312 Z M 0.71875 0.199219 " clip-rule="nonzero"/></clipPath><clipPath id="06f85cd8a0"><path d="M 133.242188 0.234375 L 142.957031 510.722656 L 10.53125 513.242188 L 0.816406 2.753906 Z M 133.242188 0.234375 " clip-rule="nonzero"/></clipPath><clipPath id="fc243f4e7e"><rect x="0" width="143" y="0" height="514"/></clipPath><clipPath id="e43791b665"><path d="M 915 170 L 1073 170 L 1073 695 L 915 695 Z M 915 170 " clip-rule="nonzero"/></clipPath><clipPath id="a12f6b9257"><path d="M 1072.6875 176.570312 L 1048.175781 694.242188 L 915.875 687.976562 L 940.386719 170.304688 Z M 1072.6875 176.570312 " clip-rule="nonzero"/></clipPath><clipPath id="097e311768"><path d="M 0.839844 0.160156 L 157.800781 0.160156 L 157.800781 524.320312 L 0.839844 524.320312 Z M 0.839844 0.160156 " clip-rule="nonzero"/></clipPath><clipPath id="5a2ae2e7ef"><path d="M 157.6875 6.570312 L 133.175781 524.242188 L 0.875 517.976562 L 25.386719 0.304688 Z M 157.6875 6.570312 " clip-rule="nonzero"/></clipPath><clipPath id="e5d5109d52"><rect x="0" width="158" y="0" height="525"/></clipPath><clipPath id="302b3a08fb"><path d="M 913 620 L 1071 620 L 1071 709 L 913 709 Z M 913 620 " clip-rule="nonzero"/></clipPath><clipPath id="1ad01d908c"><path d="M 1064.429688 708.054688 L 913.742188 695.746094 L 919.867188 620.753906 L 1070.554688 633.058594 Z M 1064.429688 708.054688 " clip-rule="nonzero"/></clipPath><clipPath id="934651b0ba"><path d="M 0.679688 0.640625 L 157.640625 0.640625 L 157.640625 88.238281 L 0.679688 88.238281 Z M 0.679688 0.640625 " clip-rule="nonzero"/></clipPath><clipPath id="7a7480f8f3"><path d="M 151.429688 88.054688 L 0.742188 75.746094 L 6.867188 0.753906 L 157.554688 13.058594 Z M 151.429688 88.054688 " clip-rule="nonzero"/></clipPath><clipPath id="929a6c9181"><rect x="0" width="158" y="0" height="89"/></clipPath><clipPath id="a8e55ee386"><path d="M 1062 682 L 1085 682 L 1085 709 L 1062 709 Z M 1062 682 " clip-rule="nonzero"/></clipPath><clipPath id="e96a6bfee0"><path d="M 1084.953125 707.324219 L 1063.742188 708.054688 L 1062.898438 683.507812 L 1084.105469 682.777344 Z M 1084.953125 707.324219 " clip-rule="nonzero"/></clipPath><clipPath id="cf7e0447b1"><path d="M 0.71875 0.558594 L 23 0.558594 L 23 26.238281 L 0.71875 26.238281 Z M 0.71875 0.558594 " clip-rule="nonzero"/></clipPath><clipPath id="d548d4428f"><path d="M 22.953125 25.324219 L 1.742188 26.054688 L 0.898438 1.507812 L 22.105469 0.777344 Z M 22.953125 25.324219 " clip-rule="nonzero"/></clipPath><clipPath id="e6ba9c44d2"><rect x="0" width="23" y="0" height="27"/></clipPath></defs><g transform="matrix(1, 0, 0, 1, 639, 255)"><g clip-path="url(#93175e6a77)"><g fill="#bd2b41" fill-opacity="1"><g transform="translate(0.452845, 426.236839)"><g><path d="M 5.8125 -387.5625 L 122.078125 -387.5625 L 122.078125 -154.25 C 122.078125 -140.039062 122.851562 -129.1875 124.40625 -121.6875 C 125.957031 -114.195312 130.09375 -110.582031 136.8125 -110.84375 C 143.53125 -110.84375 147.660156 -114.523438 149.203125 -121.890625 C 150.753906 -129.253906 151.53125 -140.039062 151.53125 -154.25 L 151.53125 -387.5625 L 267.8125 -387.5625 L 267.8125 -103.859375 C 267.8125 -82.929688 262.960938 -64.195312 253.265625 -47.65625 C 243.578125 -31.125 229.046875 -18.078125 209.671875 -8.515625 C 190.296875 1.035156 165.75 5.8125 136.03125 5.8125 C 107.09375 5.8125 82.9375 1.035156 63.5625 -8.515625 C 44.1875 -18.078125 29.71875 -31.125 20.15625 -47.65625 C 10.59375 -64.195312 5.8125 -82.929688 5.8125 -103.859375 Z M 5.8125 -387.5625 "/></g></g></g></g></g><g clip-path="url(#ac4e5c6c27)"><g transform="matrix(1, 0, 0, 1, 719, 48)"><g clip-path="url(#2867eb2f87)"><g clip-path="url(#33a3144ec6)"><path fill="#bd2b41" d="M 0.847656 0.785156 L 511.507812 0.785156 L 511.507812 133.234375 L 0.847656 133.234375 Z M 0.847656 0.785156 " fill-opacity="1" fill-rule="nonzero"/></g></g></g></g><g transform="matrix(1, 0, 0, 1, 174, 0.000000000000039746)"><g clip-path="url(#8b467f07b1)"><g fill="#bd2b41" fill-opacity="1"><g transform="translate(0.297287, 671.277885)"><g><path d="M 226.296875 9.21875 C 183.660156 9.21875 148.300781 1.632812 120.21875 -13.53125 C 92.132812 -28.695312 69.992188 -50.21875 53.796875 -78.09375 C 37.609375 -105.96875 26.128906 -139.378906 19.359375 -178.328125 C 12.597656 -217.273438 9.21875 -260.523438 9.21875 -308.078125 C 9.21875 -355.640625 12.597656 -398.6875 19.359375 -437.21875 C 26.128906 -475.757812 37.609375 -509.066406 53.796875 -537.140625 C 69.992188 -565.222656 92.132812 -586.742188 120.21875 -601.703125 C 148.300781 -616.671875 183.660156 -624.15625 226.296875 -624.15625 C 268.929688 -624.15625 304.289062 -616.671875 332.375 -601.703125 C 360.457031 -586.742188 382.59375 -565.222656 398.78125 -537.140625 C 414.976562 -509.066406 426.457031 -475.757812 433.21875 -437.21875 C 439.988281 -398.6875 443.375 -355.640625 443.375 -308.078125 C 443.375 -260.523438 439.988281 -217.273438 433.21875 -178.328125 C 426.457031 -139.378906 414.976562 -105.96875 398.78125 -78.09375 C 382.59375 -50.21875 360.457031 -28.695312 332.375 -13.53125 C 304.289062 1.632812 268.929688 9.21875 226.296875 9.21875 Z M 226.296875 -437.21875 C 213.585938 -436.8125 204.976562 -424.71875 200.46875 -400.9375 C 195.957031 -377.15625 193.703125 -343.945312 193.703125 -301.3125 C 193.703125 -264.007812 195.957031 -233.984375 200.46875 -211.234375 C 204.976562 -188.484375 213.585938 -177.109375 226.296875 -177.109375 C 239.003906 -177.109375 247.816406 -188.484375 252.734375 -211.234375 C 257.660156 -233.984375 259.914062 -264.007812 259.5 -301.3125 C 259.09375 -343.945312 256.632812 -377.253906 252.125 -401.234375 C 247.613281 -425.222656 239.003906 -437.21875 226.296875 -437.21875 Z M 226.296875 -437.21875 "/></g></g></g></g></g><g clip-path="url(#c49ca70866)"><g clip-path="url(#b79d986b3e)"><g transform="matrix(1, 0, 0, 1, 942, 181)"><g clip-path="url(#fc243f4e7e)"><g clip-path="url(#a1c05efbee)"><g clip-path="url(#06f85cd8a0)"><path fill="#bd2b41" d="M 133.242188 0.234375 L 142.957031 510.800781 L 10.53125 513.320312 L 0.816406 2.753906 Z M 133.242188 0.234375 " fill-opacity="1" fill-rule="nonzero"/></g></g></g></g></g></g><g clip-path="url(#e43791b665)"><g clip-path="url(#a12f6b9257)"><g transform="matrix(1, 0, 0, 1, 915, 170)"><g clip-path="url(#e5d5109d52)"><g clip-path="url(#097e311768)"><g clip-path="url(#5a2ae2e7ef)"><path fill="#bd2b41" d="M 157.6875 6.570312 L 133.167969 524.40625 L 0.867188 518.144531 L 25.386719 0.304688 Z M 157.6875 6.570312 " fill-opacity="1" fill-rule="nonzero"/></g></g></g></g></g></g><g clip-path="url(#302b3a08fb)"><g clip-path="url(#1ad01d908c)"><g transform="matrix(1, 0, 0, 1, 913, 620)"><g clip-path="url(#929a6c9181)"><g clip-path="url(#934651b0ba)"><g clip-path="url(#7a7480f8f3)"><path fill="#bd2b41" d="M 151.429688 88.054688 L 0.855469 75.753906 L 6.980469 0.761719 L 157.554688 13.058594 Z M 151.429688 88.054688 " fill-opacity="1" fill-rule="nonzero"/></g></g></g></g></g></g><g clip-path="url(#a8e55ee386)"><g clip-path="url(#e96a6bfee0)"><g transform="matrix(1, 0, 0, 1, 1062, 682)"><g clip-path="url(#e6ba9c44d2)"><g clip-path="url(#cf7e0447b1)"><g clip-path="url(#d548d4428f)"><path fill="#bd2b41" d="M 22.953125 25.324219 L 1.742188 26.054688 L 0.898438 1.53125 L 22.105469 0.800781 Z M 22.953125 25.324219 " fill-opacity="1" fill-rule="nonzero"/></g></g></g></g></g></g></svg>