<svg xmlns="http://www.w3.org/2000/svg" xmlns:xlink="http://www.w3.org/1999/xlink" width="851" zoomAndPan="magnify" viewBox="0 0 638.25 142.499996" height="190" preserveAspectRatio="xMidYMid meet" version="1.0"><defs><g/><clipPath id="a2d1fb1c76"><rect x="0" width="213" y="0" height="122"/></clipPath></defs><g transform="matrix(1, 0, 0, 1, 212, 10)"><g clip-path="url(#a2d1fb1c76)"><g fill="#000000" fill-opacity="1"><g transform="translate(1.129378, 91.897925)"><g><path d="M 1.25 -83.5 L 26.328125 -83.578125 L 26.328125 -25.078125 L 46.046875 -25.078125 L 46.046875 0 L 1.25 0 Z M 1.25 -83.5 "/></g></g></g><g fill="#000000" fill-opacity="1"><g transform="translate(46.347236, 91.897925)"><g><path d="M 30.75 1.25 C 24.957031 1.25 20.148438 0.214844 16.328125 -1.84375 C 12.515625 -3.90625 9.507812 -6.828125 7.3125 -10.609375 C 5.113281 -14.398438 3.550781 -18.941406 2.625 -24.234375 C 1.707031 -29.523438 1.25 -35.40625 1.25 -41.875 C 1.25 -48.332031 1.707031 -54.179688 2.625 -59.421875 C 3.550781 -64.660156 5.113281 -69.1875 7.3125 -73 C 9.507812 -76.820312 12.515625 -79.75 16.328125 -81.78125 C 20.148438 -83.8125 24.957031 -84.828125 30.75 -84.828125 C 36.550781 -84.828125 41.359375 -83.8125 45.171875 -81.78125 C 48.992188 -79.75 52.003906 -76.820312 54.203125 -73 C 56.398438 -69.1875 57.957031 -64.660156 58.875 -59.421875 C 59.800781 -54.179688 60.265625 -48.332031 60.265625 -41.875 C 60.265625 -35.40625 59.800781 -29.523438 58.875 -24.234375 C 57.957031 -18.941406 56.398438 -14.398438 54.203125 -10.609375 C 52.003906 -6.828125 48.992188 -3.90625 45.171875 -1.84375 C 41.359375 0.214844 36.550781 1.25 30.75 1.25 Z M 30.75 -59.421875 C 29.03125 -59.367188 27.863281 -57.722656 27.25 -54.484375 C 26.632812 -51.253906 26.328125 -46.742188 26.328125 -40.953125 C 26.328125 -35.878906 26.632812 -31.796875 27.25 -28.703125 C 27.863281 -25.617188 29.03125 -24.078125 30.75 -24.078125 C 32.476562 -24.078125 33.675781 -25.617188 34.34375 -28.703125 C 35.019531 -31.796875 35.328125 -35.878906 35.265625 -40.953125 C 35.210938 -46.742188 34.878906 -51.269531 34.265625 -54.53125 C 33.648438 -57.789062 32.476562 -59.421875 30.75 -59.421875 Z M 30.75 -59.421875 "/></g></g></g><g fill="#000000" fill-opacity="1"><g transform="translate(107.863592, 91.897925)"><g><path d="M 1.25 -42.453125 C 1.25 -50.921875 2.863281 -58.234375 6.09375 -64.390625 C 9.332031 -70.546875 14.164062 -75.28125 20.59375 -78.59375 C 27.03125 -81.914062 35.070312 -83.578125 44.71875 -83.578125 L 50.984375 -83.578125 L 50.984375 -58.5 L 44.71875 -58.5 C 37.75 -58.5 32.84375 -57.019531 30 -54.0625 C 27.15625 -51.113281 25.734375 -47.019531 25.734375 -41.78125 C 25.734375 -38.882812 26.5 -36.320312 28.03125 -34.09375 C 29.570312 -31.863281 31.625 -30.109375 34.1875 -28.828125 L 34.1875 -41.78125 L 50.984375 -41.78125 L 50.984375 0 L 44.71875 0 C 35.070312 0 27.03125 -1.765625 20.59375 -5.296875 C 14.164062 -8.835938 9.332031 -13.796875 6.09375 -20.171875 C 2.863281 -26.554688 1.25 -33.984375 1.25 -42.453125 Z M 1.25 -42.453125 "/></g></g></g><g fill="#000000" fill-opacity="1"><g transform="translate(160.353076, 91.897925)"><g><path d="M 20.890625 -29.171875 C 20.890625 -30.503906 20.414062 -31.785156 19.46875 -33.015625 C 18.519531 -34.242188 17.304688 -35.507812 15.828125 -36.8125 C 14.359375 -38.125 12.773438 -39.546875 11.078125 -41.078125 C 9.378906 -42.609375 7.789062 -44.363281 6.3125 -46.34375 C 4.832031 -48.320312 3.617188 -50.617188 2.671875 -53.234375 C 1.722656 -55.859375 1.25 -58.867188 1.25 -62.265625 C 1.25 -66.941406 2.164062 -70.851562 4 -74 C 5.84375 -77.15625 8.226562 -79.539062 11.15625 -81.15625 C 14.082031 -82.769531 17.160156 -83.578125 20.390625 -83.578125 L 46.046875 -83.578125 L 46.046875 -58.5 L 39.359375 -58.5 C 38.242188 -58.5 37.070312 -58.441406 35.84375 -58.328125 C 34.625 -58.222656 33.597656 -57.863281 32.765625 -57.25 C 31.929688 -56.632812 31.515625 -55.546875 31.515625 -53.984375 C 31.515625 -52.648438 31.957031 -51.492188 32.84375 -50.515625 C 33.738281 -49.546875 34.894531 -48.597656 36.3125 -47.671875 C 37.738281 -46.753906 39.242188 -45.710938 40.828125 -44.546875 C 42.410156 -43.378906 43.910156 -41.957031 45.328125 -40.28125 C 46.753906 -38.613281 47.910156 -36.523438 48.796875 -34.015625 C 49.691406 -31.503906 50.140625 -28.410156 50.140625 -24.734375 C 50.140625 -19.941406 49.21875 -15.679688 47.375 -11.953125 C 45.539062 -8.222656 42.925781 -5.296875 39.53125 -3.171875 C 36.132812 -1.054688 32.09375 0 27.40625 0 L 2.421875 0 L 2.421875 -25.078125 L 12.03125 -25.078125 C 14.988281 -25.078125 17.203125 -25.367188 18.671875 -25.953125 C 20.148438 -26.535156 20.890625 -27.609375 20.890625 -29.171875 Z M 20.890625 -29.171875 "/></g></g></g></g></g></svg>