<svg xmlns="http://www.w3.org/2000/svg" xmlns:xlink="http://www.w3.org/1999/xlink" width="1920" zoomAndPan="magnify" viewBox="0 0 1440 809.999993" height="1080" preserveAspectRatio="xMidYMid meet" version="1.0"><defs><g/></defs><g fill="#bd2b41" fill-opacity="1"><g transform="translate(172.525076, 304.071876)"><g><path d="M 50.703125 0 L 0 -195.578125 L 58.734375 -195.578125 L 78.703125 -97.6875 L 98.484375 -195.578125 L 146.640625 -195.578125 L 166.609375 -97.6875 L 186.390625 -195.578125 L 245.125 -195.578125 L 194.40625 0 L 138.609375 0 L 122.5625 -79.484375 L 106.5 0 Z M 50.703125 0 "/></g></g></g><g fill="#bd2b41" fill-opacity="1"><g transform="translate(417.650601, 304.071876)"><g><path d="M 119.03125 0 L 2.9375 0 L 2.9375 -195.578125 L 119.03125 -195.578125 L 119.03125 -136.84375 L 61.671875 -136.84375 L 61.671875 -127.0625 L 107.28125 -127.0625 L 107.28125 -68.328125 L 61.671875 -68.328125 L 61.671875 -58.734375 L 119.03125 -58.734375 Z M 119.03125 0 "/></g></g></g><g fill="#bd2b41" fill-opacity="1"><g transform="translate(539.625983, 304.071876)"><g><path d="M 2.9375 -195.578125 L 61.671875 -195.78125 L 61.671875 -58.734375 L 107.875 -58.734375 L 107.875 0 L 2.9375 0 Z M 2.9375 -195.578125 "/></g></g></g><g fill="#bd2b41" fill-opacity="1"><g transform="translate(645.546815, 304.071876)"><g><path d="M 2.9375 -97.890625 C 2.9375 -117.460938 5.804688 -134.59375 11.546875 -149.28125 C 17.296875 -163.96875 26.078125 -175.390625 37.890625 -183.546875 C 49.703125 -191.703125 64.613281 -195.78125 82.625 -195.78125 L 111.984375 -195.78125 L 112.375 -138.03125 C 108.71875 -138.03125 105.289062 -138.03125 102.09375 -138.03125 C 98.894531 -138.03125 95.992188 -138.03125 93.390625 -138.03125 C 82.296875 -138.03125 74.234375 -134.304688 69.203125 -126.859375 C 64.179688 -119.421875 61.671875 -109.765625 61.671875 -97.890625 C 61.671875 -90.054688 62.710938 -83.101562 64.796875 -77.03125 C 66.890625 -70.96875 70.253906 -66.238281 74.890625 -62.84375 C 79.523438 -59.445312 85.625 -57.75 93.1875 -57.75 C 96.582031 -57.75 99.941406 -57.75 103.265625 -57.75 C 106.597656 -57.75 109.632812 -57.75 112.375 -57.75 L 111.984375 0 L 82.625 0 C 64.613281 0 49.703125 -4.078125 37.890625 -12.234375 C 26.078125 -20.390625 17.296875 -31.804688 11.546875 -46.484375 C 5.804688 -61.171875 2.9375 -78.304688 2.9375 -97.890625 Z M 2.9375 -97.890625 "/></g></g></g><g fill="#bd2b41" fill-opacity="1"><g transform="translate(760.865489, 304.071876)"><g><path d="M 72.046875 2.9375 C 58.472656 2.9375 47.210938 0.523438 38.265625 -4.296875 C 29.328125 -9.128906 22.28125 -15.984375 17.125 -24.859375 C 11.96875 -33.734375 8.3125 -44.367188 6.15625 -56.765625 C 4.007812 -69.171875 2.9375 -82.945312 2.9375 -98.09375 C 2.9375 -113.226562 4.007812 -126.929688 6.15625 -139.203125 C 8.3125 -151.472656 11.96875 -162.078125 17.125 -171.015625 C 22.28125 -179.953125 29.328125 -186.800781 38.265625 -191.5625 C 47.210938 -196.332031 58.472656 -198.71875 72.046875 -198.71875 C 85.617188 -198.71875 96.875 -196.332031 105.8125 -191.5625 C 114.757812 -186.800781 121.8125 -179.953125 126.96875 -171.015625 C 132.125 -162.078125 135.773438 -151.472656 137.921875 -139.203125 C 140.078125 -126.929688 141.15625 -113.226562 141.15625 -98.09375 C 141.15625 -82.945312 140.078125 -69.171875 137.921875 -56.765625 C 135.773438 -44.367188 132.125 -33.734375 126.96875 -24.859375 C 121.8125 -15.984375 114.757812 -9.128906 105.8125 -4.296875 C 96.875 0.523438 85.617188 2.9375 72.046875 2.9375 Z M 72.046875 -139.203125 C 68.003906 -139.066406 65.265625 -135.210938 63.828125 -127.640625 C 62.390625 -120.078125 61.671875 -109.507812 61.671875 -95.9375 C 61.671875 -84.050781 62.390625 -74.488281 63.828125 -67.25 C 65.265625 -60.007812 68.003906 -56.390625 72.046875 -56.390625 C 76.085938 -56.390625 78.890625 -60.007812 80.453125 -67.25 C 82.023438 -74.488281 82.75 -84.050781 82.625 -95.9375 C 82.488281 -109.507812 81.703125 -120.113281 80.265625 -127.75 C 78.828125 -135.382812 76.085938 -139.203125 72.046875 -139.203125 Z M 72.046875 -139.203125 "/></g></g></g><g fill="#bd2b41" fill-opacity="1"><g transform="translate(904.964864, 304.071876)"><g><path d="M 2.9375 -195.578125 L 88.6875 -195.578125 L 99.0625 -89.28125 L 109.4375 -195.578125 L 195.1875 -195.578125 L 195.1875 0 L 146.25 0 L 146.25 -137.046875 L 132.15625 0 L 65.984375 0 L 51.875 -137.046875 L 51.875 0 L 2.9375 0 Z M 2.9375 -195.578125 "/></g></g></g><g fill="#bd2b41" fill-opacity="1"><g transform="translate(1103.101452, 304.071876)"><g><path d="M 119.03125 0 L 2.9375 0 L 2.9375 -195.578125 L 119.03125 -195.578125 L 119.03125 -136.84375 L 61.671875 -136.84375 L 61.671875 -127.0625 L 107.28125 -127.0625 L 107.28125 -68.328125 L 61.671875 -68.328125 L 61.671875 -58.734375 L 119.03125 -58.734375 Z M 119.03125 0 "/></g></g></g><g fill="#bd2b41" fill-opacity="1"><g transform="translate(562.536775, 519.321865)"><g><path d="M 2.9375 -137.25 L 2.9375 -195.78125 L 130.1875 -195.78125 L 130.1875 -137.25 L 95.9375 -137.25 L 95.9375 0 L 37.203125 0 L 37.203125 -137.25 Z M 2.9375 -137.25 "/></g></g></g><g fill="#bd2b41" fill-opacity="1"><g transform="translate(690.973144, 519.321865)"><g><path d="M 72.046875 2.9375 C 58.472656 2.9375 47.210938 0.523438 38.265625 -4.296875 C 29.328125 -9.128906 22.28125 -15.984375 17.125 -24.859375 C 11.96875 -33.734375 8.3125 -44.367188 6.15625 -56.765625 C 4.007812 -69.171875 2.9375 -82.945312 2.9375 -98.09375 C 2.9375 -113.226562 4.007812 -126.929688 6.15625 -139.203125 C 8.3125 -151.472656 11.96875 -162.078125 17.125 -171.015625 C 22.28125 -179.953125 29.328125 -186.800781 38.265625 -191.5625 C 47.210938 -196.332031 58.472656 -198.71875 72.046875 -198.71875 C 85.617188 -198.71875 96.875 -196.332031 105.8125 -191.5625 C 114.757812 -186.800781 121.8125 -179.953125 126.96875 -171.015625 C 132.125 -162.078125 135.773438 -151.472656 137.921875 -139.203125 C 140.078125 -126.929688 141.15625 -113.226562 141.15625 -98.09375 C 141.15625 -82.945312 140.078125 -69.171875 137.921875 -56.765625 C 135.773438 -44.367188 132.125 -33.734375 126.96875 -24.859375 C 121.8125 -15.984375 114.757812 -9.128906 105.8125 -4.296875 C 96.875 0.523438 85.617188 2.9375 72.046875 2.9375 Z M 72.046875 -139.203125 C 68.003906 -139.066406 65.265625 -135.210938 63.828125 -127.640625 C 62.390625 -120.078125 61.671875 -109.507812 61.671875 -95.9375 C 61.671875 -84.050781 62.390625 -74.488281 63.828125 -67.25 C 65.265625 -60.007812 68.003906 -56.390625 72.046875 -56.390625 C 76.085938 -56.390625 78.890625 -60.007812 80.453125 -67.25 C 82.023438 -74.488281 82.75 -84.050781 82.625 -95.9375 C 82.488281 -109.507812 81.703125 -120.113281 80.265625 -127.75 C 78.828125 -135.382812 76.085938 -139.203125 72.046875 -139.203125 Z M 72.046875 -139.203125 "/></g></g></g></svg>